<svg width="67" height="68" viewBox="0 0 67 68" fill="none" xmlns="http://www.w3.org/2000/svg">
<path d="M49.0488 35.3105L46.0957 30.4297V0.078125H49.0488V35.3105ZM54.9551 44.9902L52.002 40.0273V0.078125H54.9551V44.9902ZM60.8613 54.793L57.9082 49.7891V0.078125H60.8613V54.793ZM18.5332 32.7676L21.4863 37.6484V68H18.5332V32.7676ZM12.627 23.0879L15.5801 28.0508V68H12.627V23.0879ZM6.7207 13.2852L9.67383 18.2891V68H6.7207V13.2852ZM7.74609 0.078125H11.1914L52.9453 68H49.5L7.74609 0.078125ZM14.7188 0.078125H18.2051L59.918 68H56.3906L14.7188 0.078125ZM21.6504 0.078125H25.0957L63.8145 63.2012V0.078125H66.7676V68C66.7676 68 65.6055 68 63.2812 68L21.6504 0.078125ZM3.76758 4.87695V68H0.814453V0.078125C0.814453 0.078125 1.99023 0.078125 4.3418 0.078125L45.9727 68H42.5684L3.76758 4.87695Z" fill="white"/>
</svg>
