<svg width="826" height="151" viewBox="0 0 826 151" fill="none" xmlns="http://www.w3.org/2000/svg">
<path d="M104.153 76.562L97.7896 66.0449V0.644531H104.153V76.562ZM116.879 97.4194L110.516 86.7256V0.644531H116.879V97.4194ZM129.606 118.542L123.243 107.76V0.644531H129.606V118.542ZM38.3989 71.0825L44.7622 81.5996V147H38.3989V71.0825ZM25.6724 50.2251L32.0356 60.9189V147H25.6724V50.2251ZM12.9458 29.1025L19.3091 39.8848V147H12.9458V29.1025ZM15.1553 0.644531H22.5791L112.549 147H105.125L15.1553 0.644531ZM30.1797 0.644531H37.6919L127.573 147H119.973L30.1797 0.644531ZM45.1157 0.644531H52.5396L135.969 136.66V0.644531H142.333V147C142.333 147 139.828 147 134.82 147L45.1157 0.644531ZM6.58252 10.9849V147H0.219238V0.644531C0.219238 0.644531 2.75277 0.644531 7.81982 0.644531L97.5244 147H90.189L6.58252 10.9849ZM249.448 84.251C249.448 76.7093 247.12 70.8763 242.466 66.752C237.811 62.6276 231.654 60.5654 223.995 60.5654C217.514 60.5654 211.946 62.8044 207.291 67.2822C202.636 71.7601 200.309 77.1217 200.309 83.3672C200.309 86.9023 200.78 90.084 201.723 92.9121C202.666 95.6813 203.933 98.0086 205.523 99.894C207.173 101.721 209.118 103.252 211.356 104.49C213.595 105.668 215.923 106.522 218.338 107.053C220.813 107.583 223.435 107.848 226.204 107.848C232.921 107.848 239.049 106.198 244.587 102.899V109.262C238.872 112.267 232.715 113.77 226.116 113.77C221.874 113.77 217.867 113.21 214.096 112.09C210.384 110.912 206.996 109.174 203.933 106.876C200.869 104.519 198.424 101.338 196.597 97.3311C194.83 93.2656 193.946 88.611 193.946 83.3672C193.946 75.2363 196.803 68.3428 202.519 62.6865C208.234 57.0303 215.392 54.2021 223.995 54.2021C233.481 54.2021 241.14 56.883 246.973 62.2446C252.865 67.5474 255.811 74.8828 255.811 84.251V147H249.448V84.251ZM268.538 84.251V147H262.174V84.251C262.174 73.1152 258.61 64.2773 251.48 57.7373C244.351 51.1383 235.189 47.8389 223.995 47.8389C213.625 47.8389 204.964 51.2856 198.011 58.1792C191.059 65.0728 187.583 73.4688 187.583 83.3672C187.583 89.377 188.614 94.7681 190.676 99.5405C192.797 104.313 195.654 108.143 199.249 111.03C202.843 113.917 206.849 116.126 211.268 117.658C215.746 119.131 220.459 119.868 225.409 119.868C232.125 119.868 238.518 118.306 244.587 115.184V121.9C238.224 124.552 231.801 125.877 225.32 125.877C219.487 125.877 213.949 124.994 208.705 123.226C203.461 121.4 198.777 118.778 194.653 115.36C190.528 111.884 187.258 107.406 184.843 101.927C182.427 96.3883 181.219 90.2018 181.219 83.3672C181.219 71.7601 185.314 61.8911 193.504 53.7603C201.753 45.5705 211.916 41.4756 223.995 41.4756C232.479 41.4756 240.08 43.2137 246.796 46.6899C253.513 50.1073 258.816 55.0859 262.705 61.626C266.593 68.166 268.538 75.7077 268.538 84.251ZM281.264 84.251V147H274.901V84.251C274.901 74.5293 272.662 65.9271 268.184 58.4443C263.765 50.9027 257.696 45.1286 249.978 41.1221C242.26 37.1156 233.598 35.1123 223.995 35.1123C214.862 35.1123 206.525 37.2923 198.983 41.6523C191.442 45.9535 185.52 51.7865 181.219 59.1514C176.977 66.5163 174.856 74.5882 174.856 83.3672C174.856 90.9089 176.241 97.8024 179.01 104.048C181.779 110.234 185.491 115.331 190.146 119.337C194.859 123.344 200.191 126.467 206.142 128.706C212.152 130.886 218.427 131.976 224.967 131.976C231.625 131.976 238.165 130.591 244.587 127.822V134.273C237.87 136.807 231.271 138.074 224.79 138.074C214.597 138.074 205.229 135.776 196.686 131.18C188.142 126.584 181.308 120.074 176.182 111.648C171.056 103.223 168.493 93.7959 168.493 83.3672C168.493 75.9434 169.907 68.873 172.735 62.1562C175.622 55.4395 179.511 49.6359 184.401 44.7456C189.291 39.8553 195.183 35.9666 202.077 33.0796C208.97 30.1925 216.276 28.749 223.995 28.749C234.777 28.749 244.499 31.0469 253.16 35.6426C261.88 40.2383 268.744 46.7783 273.752 55.2627C278.76 63.7471 281.264 73.4098 281.264 84.251ZM293.991 84.251V147H287.627V84.251C287.627 72.2314 284.829 61.5081 279.231 52.0811C273.634 42.5951 266.004 35.2891 256.341 30.1631C246.679 24.9782 235.896 22.3857 223.995 22.3857C212.564 22.3857 202.106 25.1255 192.62 30.605C183.134 36.0845 175.681 43.5083 170.26 52.8765C164.84 62.1857 162.129 72.3493 162.129 83.3672C162.129 90.6143 163.278 97.5078 165.576 104.048C167.933 110.529 171.115 116.215 175.121 121.105C179.187 125.936 183.841 130.12 189.085 133.655C194.388 137.19 200.073 139.871 206.142 141.697C212.27 143.524 218.486 144.437 224.79 144.437C231.743 144.437 238.341 143.111 244.587 140.46V147C238.047 149.298 231.33 150.447 224.437 150.447C217.307 150.447 210.355 149.445 203.579 147.442C196.862 145.439 190.617 142.493 184.843 138.604C179.128 134.656 174.09 130.031 169.73 124.729C165.37 119.367 161.953 113.121 159.478 105.992C157.003 98.863 155.766 91.3213 155.766 83.3672C155.766 74.2347 157.475 65.5441 160.892 57.2954C164.368 48.9878 169.082 41.8291 175.033 35.8193C181.042 29.7507 188.29 24.9487 196.774 21.4136C205.317 17.8195 214.391 16.0225 223.995 16.0225C233.775 16.0225 242.967 17.6722 251.569 20.9717C260.171 24.2712 267.595 28.8669 273.84 34.7588C280.086 40.5918 285.006 47.7799 288.6 56.3232C292.194 64.8665 293.991 74.1758 293.991 84.251ZM368.229 86.4604H358.154C345.781 86.4604 336.265 83.9564 329.607 78.9482C322.95 73.8812 319.621 66.9287 319.621 58.0908C319.621 49.8421 323.539 42.978 331.375 37.4985C339.211 31.9601 350.2 29.1909 364.34 29.1909C373.767 29.1909 382.546 30.4871 390.677 33.0796C398.867 35.672 405.672 39.325 411.093 44.0386L406.144 48.0156C401.312 44.068 395.243 41.0042 387.938 38.8242C380.632 36.6442 372.766 35.5542 364.34 35.5542C351.908 35.5542 342.393 37.6753 335.794 41.9175C329.254 46.1597 325.984 51.5508 325.984 58.0908C325.984 65.1611 328.665 70.6112 334.026 74.4409C339.447 78.2118 347.489 80.0972 358.154 80.0972H367.875C380.425 80.0972 390.029 82.6307 396.687 87.6978C403.404 92.7059 406.762 99.6289 406.762 108.467C406.762 116.715 402.844 123.609 395.008 129.147C387.172 134.627 376.183 137.367 362.042 137.367C352.615 137.367 343.807 136.07 335.617 133.478C327.486 130.886 320.711 127.233 315.29 122.519L320.239 118.542C325.071 122.49 331.139 125.553 338.445 127.733C345.751 129.913 353.617 131.003 362.042 131.003C374.474 131.003 383.96 128.882 390.5 124.64C397.099 120.398 400.399 115.007 400.399 108.467C400.399 101.396 397.689 95.9759 392.268 92.2051C386.906 88.3753 378.893 86.4604 368.229 86.4604ZM368.229 99.187H358.154C341.774 99.187 329.136 95.4751 320.239 88.0513C311.342 80.5685 306.894 70.5817 306.894 58.0908C306.894 52.3757 308.161 47.014 310.694 42.0059C313.228 36.9977 316.851 32.6082 321.565 28.8374C326.337 25.0076 332.406 22.0028 339.771 19.8228C347.136 17.5838 355.326 16.4644 364.34 16.4644C375.712 16.4644 386.347 18.2025 396.245 21.6787C406.144 25.096 414.392 29.8979 420.991 36.0845L415.865 39.8848C409.855 34.4642 402.343 30.2809 393.329 27.335C384.314 24.3301 374.651 22.8276 364.34 22.8276C348.432 22.8276 335.941 26.186 326.868 32.9028C317.794 39.6196 313.257 48.0156 313.257 58.0908C313.257 68.7552 317.146 77.2101 324.923 83.4556C332.701 89.701 343.778 92.8237 358.154 92.8237H367.875C385.316 92.8237 394.036 98.0381 394.036 108.467C394.036 113.18 391.355 117.069 385.993 120.133C380.69 123.138 372.707 124.64 362.042 124.64C354.56 124.64 347.607 123.786 341.185 122.077C334.763 120.31 329.46 117.806 325.277 114.565L330.314 110.676C337.679 115.743 348.255 118.277 362.042 118.277C370.88 118.277 377.361 117.364 381.486 115.537C385.61 113.711 387.672 111.354 387.672 108.467C387.672 105.108 386.229 102.722 383.342 101.308C380.455 99.894 375.417 99.187 368.229 99.187ZM368.229 73.7339H358.154C340.949 73.7339 332.347 68.5195 332.347 58.0908C332.347 53.3773 334.999 49.5181 340.301 46.5132C345.663 43.4494 353.676 41.9175 364.34 41.9175C371.823 41.9175 378.776 42.8013 385.198 44.5688C391.62 46.2775 396.923 48.7521 401.106 51.9927L396.068 55.8813C388.703 50.8143 378.127 48.2808 364.34 48.2808C355.502 48.2808 349.021 49.194 344.897 51.0205C340.773 52.847 338.71 55.2038 338.71 58.0908C338.71 61.4492 340.154 63.8354 343.041 65.2495C345.928 66.6636 350.966 67.3706 358.154 67.3706H368.229C384.609 67.3706 397.247 71.112 406.144 78.5947C415.04 86.0186 419.489 95.9759 419.489 108.467C419.489 114.182 418.222 119.544 415.688 124.552C413.155 129.56 409.502 133.979 404.729 137.809C400.016 141.579 393.977 144.584 386.612 146.823C379.247 149.003 371.057 150.093 362.042 150.093C350.671 150.093 340.036 148.385 330.138 144.967C320.239 141.491 311.991 136.66 305.392 130.473L310.518 126.673C316.527 132.093 324.04 136.306 333.054 139.311C342.069 142.257 351.732 143.73 362.042 143.73C377.951 143.73 390.442 140.372 399.515 133.655C408.589 126.938 413.125 118.542 413.125 108.467C413.125 97.8024 409.237 89.3475 401.459 83.1021C393.682 76.8566 382.605 73.7339 368.229 73.7339ZM455.989 54.9976H462.353V147H455.989V54.9976ZM430.536 26.0977V19.7344H525.985V26.0977H430.536ZM430.536 38.8242V32.4609H525.985V38.8242H430.536ZM430.536 51.5508V45.1875H525.985V51.5508H430.536ZM494.169 54.9976H500.532V147H494.169V54.9976ZM481.442 54.9976H487.806V147H481.442V54.9976ZM468.716 54.9976H475.079V147H468.716V54.9976ZM588.116 86.1953H626.472C631.539 86.1953 635.84 84.6045 639.375 81.4229C642.911 78.2412 644.678 73.7633 644.678 67.9893C644.678 63.7471 642.822 59.9468 639.11 56.5884C635.457 53.23 631.245 51.5508 626.472 51.5508H571.854V147H565.491V45.1875H626.472C633.012 45.1875 638.727 47.4854 643.618 52.0811C648.567 56.6768 651.042 61.9795 651.042 67.9893C651.042 75.472 648.655 81.4523 643.883 85.9302C639.11 90.3491 633.307 92.5586 626.472 92.5586H588.116V86.1953ZM588.116 98.9219H626.472C634.957 98.9219 642.233 96.0348 648.302 90.2607C654.37 84.4867 657.405 77.0628 657.405 67.9893C657.405 60.2708 654.312 53.4951 648.125 47.6621C641.938 41.7702 634.721 38.8242 626.472 38.8242H559.127V147H552.764V32.4609H626.472C636.488 32.4609 645.208 36.0256 652.632 43.1548C660.056 50.2251 663.768 58.5033 663.768 67.9893C663.768 78.5947 660.086 87.4621 652.721 94.5913C645.415 101.721 636.665 105.285 626.472 105.285H588.116V98.9219ZM588.116 111.648H626.472C634.308 111.648 641.556 109.763 648.213 105.992C654.871 102.221 660.174 96.9775 664.122 90.2607C668.128 83.5439 670.131 76.1201 670.131 67.9893C670.131 60.6243 668.158 53.7308 664.21 47.3086C660.262 40.8275 654.901 35.672 648.125 31.8423C641.408 28.0125 634.191 26.0977 626.472 26.0977H546.401V147H540.038V19.7344H626.472C633.13 19.7344 639.523 21.0601 645.65 23.7114C651.837 26.3039 657.169 29.7801 661.647 34.1401C666.125 38.4412 669.719 43.5672 672.429 49.5181C675.139 55.4689 676.495 61.626 676.495 67.9893C676.495 78.3001 674.138 87.3148 669.424 95.0332C664.711 102.693 658.377 108.526 650.423 112.532L663.768 147H656.963L644.325 115.095C642.734 115.625 640.878 116.156 638.757 116.686L650.688 147H643.883L632.217 117.747C630.39 117.923 628.475 118.012 626.472 118.012L637.696 147H630.979L619.844 118.012H614.099L624.793 147H618.076L607.294 118.012H588.116V111.648ZM584.581 147H578.217V57.9141H626.472C629.772 57.9141 632.57 58.9157 634.868 60.9189C637.166 62.8633 638.315 65.2201 638.315 67.9893C638.315 75.8844 634.367 79.832 626.472 79.832H588.116V73.4688H626.472C630.125 73.4688 631.952 71.6423 631.952 67.9893C631.952 66.9876 631.392 66.1333 630.272 65.4263C629.212 64.6603 627.945 64.2773 626.472 64.2773H584.581V147ZM780.958 84.251C780.958 76.7093 778.631 70.8763 773.977 66.752C769.322 62.6276 763.165 60.5654 755.505 60.5654C749.024 60.5654 743.456 62.8044 738.802 67.2822C734.147 71.7601 731.82 77.1217 731.82 83.3672C731.82 86.9023 732.291 90.084 733.234 92.9121C734.177 95.6813 735.443 98.0086 737.034 99.894C738.684 101.721 740.628 103.252 742.867 104.49C745.106 105.668 747.433 106.522 749.849 107.053C752.324 107.583 754.946 107.848 757.715 107.848C764.432 107.848 770.559 106.198 776.098 102.899V109.262C770.382 112.267 764.225 113.77 757.626 113.77C753.384 113.77 749.378 113.21 745.607 112.09C741.895 110.912 738.507 109.174 735.443 106.876C732.38 104.519 729.934 101.338 728.108 97.3311C726.34 93.2656 725.457 88.611 725.457 83.3672C725.457 75.2363 728.314 68.3428 734.029 62.6865C739.744 57.0303 746.903 54.2021 755.505 54.2021C764.991 54.2021 772.651 56.883 778.484 62.2446C784.376 67.5474 787.322 74.8828 787.322 84.251V147H780.958V84.251ZM800.048 84.251V147H793.685V84.251C793.685 73.1152 790.12 64.2773 782.991 57.7373C775.862 51.1383 766.7 47.8389 755.505 47.8389C745.136 47.8389 736.474 51.2856 729.522 58.1792C722.569 65.0728 719.093 73.4688 719.093 83.3672C719.093 89.377 720.124 94.7681 722.187 99.5405C724.308 104.313 727.165 108.143 730.759 111.03C734.353 113.917 738.36 116.126 742.779 117.658C747.257 119.131 751.97 119.868 756.919 119.868C763.636 119.868 770.029 118.306 776.098 115.184V121.9C769.734 124.552 763.312 125.877 756.831 125.877C750.998 125.877 745.46 124.994 740.216 123.226C734.972 121.4 730.288 118.778 726.164 115.36C722.039 111.884 718.769 107.406 716.354 101.927C713.938 96.3883 712.73 90.2018 712.73 83.3672C712.73 71.7601 716.825 61.8911 725.015 53.7603C733.263 45.5705 743.427 41.4756 755.505 41.4756C763.99 41.4756 771.59 43.2137 778.307 46.6899C785.024 50.1073 790.327 55.0859 794.215 61.626C798.104 68.166 800.048 75.7077 800.048 84.251ZM812.775 84.251V147H806.412V84.251C806.412 74.5293 804.173 65.9271 799.695 58.4443C795.276 50.9027 789.207 45.1286 781.489 41.1221C773.77 37.1156 765.109 35.1123 755.505 35.1123C746.373 35.1123 738.036 37.2923 730.494 41.6523C722.952 45.9535 717.031 51.7865 712.73 59.1514C708.488 66.5163 706.367 74.5882 706.367 83.3672C706.367 90.9089 707.751 97.8024 710.521 104.048C713.29 110.234 717.002 115.331 721.656 119.337C726.37 123.344 731.702 126.467 737.653 128.706C743.663 130.886 749.938 131.976 756.478 131.976C763.135 131.976 769.675 130.591 776.098 127.822V134.273C769.381 136.807 762.782 138.074 756.301 138.074C746.108 138.074 736.74 135.776 728.196 131.18C719.653 126.584 712.818 120.074 707.692 111.648C702.566 103.223 700.003 93.7959 700.003 83.3672C700.003 75.9434 701.417 68.873 704.246 62.1562C707.133 55.4395 711.021 49.6359 715.912 44.7456C720.802 39.8553 726.694 35.9666 733.587 33.0796C740.481 30.1925 747.787 28.749 755.505 28.749C766.288 28.749 776.009 31.0469 784.67 35.6426C793.39 40.2383 800.255 46.7783 805.263 55.2627C810.271 63.7471 812.775 73.4098 812.775 84.251ZM825.501 84.251V147H819.138V84.251C819.138 72.2314 816.34 61.5081 810.742 52.0811C805.145 42.5951 797.515 35.2891 787.852 30.1631C778.189 24.9782 767.407 22.3857 755.505 22.3857C744.075 22.3857 733.617 25.1255 724.131 30.605C714.645 36.0845 707.192 43.5083 701.771 52.8765C696.35 62.1857 693.64 72.3493 693.64 83.3672C693.64 90.6143 694.789 97.5078 697.087 104.048C699.444 110.529 702.625 116.215 706.632 121.105C710.697 125.936 715.352 130.12 720.596 133.655C725.898 137.19 731.584 139.871 737.653 141.697C743.78 143.524 749.996 144.437 756.301 144.437C763.253 144.437 769.852 143.111 776.098 140.46V147C769.558 149.298 762.841 150.447 755.947 150.447C748.818 150.447 741.866 149.445 735.09 147.442C728.373 145.439 722.128 142.493 716.354 138.604C710.638 134.656 705.601 130.031 701.241 124.729C696.881 119.367 693.463 113.121 690.989 105.992C688.514 98.863 687.277 91.3213 687.277 83.3672C687.277 74.2347 688.986 65.5441 692.403 57.2954C695.879 48.9878 700.593 41.8291 706.543 35.8193C712.553 29.7507 719.8 24.9487 728.285 21.4136C736.828 17.8195 745.902 16.0225 755.505 16.0225C765.286 16.0225 774.477 17.6722 783.08 20.9717C791.682 24.2712 799.106 28.8669 805.351 34.7588C811.597 40.5918 816.516 47.7799 820.11 56.3232C823.704 64.8665 825.501 74.1758 825.501 84.251Z" fill="white"/>
</svg>
