<svg width="280" height="124" viewBox="0 0 280 124" fill="none" xmlns="http://www.w3.org/2000/svg">
<path d="M37.7832 45.6504L35.6738 42.1641V20.4844H37.7832V45.6504ZM42.002 52.5645L39.8926 49.0195V20.4844H42.002V52.5645ZM46.2207 59.5664L44.1113 55.9922V20.4844H46.2207V59.5664ZM15.9863 43.834L18.0957 47.3203V69H15.9863V43.834ZM11.7676 36.9199L13.877 40.4648V69H11.7676V36.9199ZM7.54883 29.918L9.6582 33.4922V69H7.54883V29.918ZM8.28125 20.4844H10.7422L40.5664 69H38.1055L8.28125 20.4844ZM13.2617 20.4844H15.752L45.5469 69H43.0273L13.2617 20.4844ZM18.2129 20.4844H20.6738L48.3301 65.5723V20.4844H50.4395V69C50.4395 69 49.6094 69 47.9492 69L18.2129 20.4844ZM5.43945 23.9121V69H3.33008V20.4844C3.33008 20.4844 4.16992 20.4844 5.84961 20.4844L35.5859 69H33.1543L5.43945 23.9121ZM85.9473 48.1992C85.9473 45.6992 85.1758 43.7656 83.6328 42.3984C82.0898 41.0312 80.0488 40.3477 77.5098 40.3477C75.3613 40.3477 73.5156 41.0898 71.9727 42.5742C70.4297 44.0586 69.6582 45.8359 69.6582 47.9062C69.6582 49.0781 69.8145 50.1328 70.127 51.0703C70.4395 51.9883 70.8594 52.7598 71.3867 53.3848C71.9336 53.9902 72.5781 54.498 73.3203 54.9082C74.0625 55.2988 74.834 55.582 75.6348 55.7578C76.4551 55.9336 77.3242 56.0215 78.2422 56.0215C80.4688 56.0215 82.5 55.4746 84.3359 54.3809V56.4902C82.4414 57.4863 80.4004 57.9844 78.2129 57.9844C76.8066 57.9844 75.4785 57.7988 74.2285 57.4277C72.998 57.0371 71.875 56.4609 70.8594 55.6992C69.8438 54.918 69.0332 53.8633 68.4277 52.5352C67.8418 51.1875 67.5488 49.6445 67.5488 47.9062C67.5488 45.2109 68.4961 42.9258 70.3906 41.0508C72.2852 39.1758 74.6582 38.2383 77.5098 38.2383C80.6543 38.2383 83.1934 39.127 85.127 40.9043C87.0801 42.6621 88.0566 45.0938 88.0566 48.1992V69H85.9473V48.1992ZM92.2754 48.1992V69H90.166V48.1992C90.166 44.5078 88.9844 41.5781 86.6211 39.4102C84.2578 37.2227 81.2207 36.1289 77.5098 36.1289C74.0723 36.1289 71.2012 37.2715 68.8965 39.5566C66.5918 41.8418 65.4395 44.625 65.4395 47.9062C65.4395 49.8984 65.7812 51.6855 66.4648 53.2676C67.168 54.8496 68.1152 56.1191 69.3066 57.0762C70.498 58.0332 71.8262 58.7656 73.291 59.2734C74.7754 59.7617 76.3379 60.0059 77.9785 60.0059C80.2051 60.0059 82.3242 59.4883 84.3359 58.4531V60.6797C82.2266 61.5586 80.0977 61.998 77.9492 61.998C76.0156 61.998 74.1797 61.7051 72.4414 61.1191C70.7031 60.5137 69.1504 59.6445 67.7832 58.5117C66.416 57.3594 65.332 55.875 64.5312 54.0586C63.7305 52.2227 63.3301 50.1719 63.3301 47.9062C63.3301 44.0586 64.6875 40.7871 67.4023 38.0918C70.1367 35.377 73.5059 34.0195 77.5098 34.0195C80.3223 34.0195 82.8418 34.5957 85.0684 35.748C87.2949 36.8809 89.0527 38.5312 90.3418 40.6992C91.6309 42.8672 92.2754 45.3672 92.2754 48.1992ZM96.4941 48.1992V69H94.3848V48.1992C94.3848 44.9766 93.6426 42.125 92.1582 39.6445C90.6934 37.1445 88.6816 35.2305 86.123 33.9023C83.5645 32.5742 80.6934 31.9102 77.5098 31.9102C74.4824 31.9102 71.7188 32.6328 69.2188 34.0781C66.7188 35.5039 64.7559 37.4375 63.3301 39.8789C61.9238 42.3203 61.2207 44.9961 61.2207 47.9062C61.2207 50.4062 61.6797 52.6914 62.5977 54.7617C63.5156 56.8125 64.7461 58.502 66.2891 59.8301C67.8516 61.1582 69.6191 62.1934 71.5918 62.9355C73.584 63.6582 75.6641 64.0195 77.832 64.0195C80.0391 64.0195 82.207 63.5605 84.3359 62.6426V64.7812C82.1094 65.6211 79.9219 66.041 77.7734 66.041C74.3945 66.041 71.2891 65.2793 68.457 63.7559C65.625 62.2324 63.3594 60.0742 61.6602 57.2812C59.9609 54.4883 59.1113 51.3633 59.1113 47.9062C59.1113 45.4453 59.5801 43.1016 60.5176 40.875C61.4746 38.6484 62.7637 36.7246 64.3848 35.1035C66.0059 33.4824 67.959 32.1934 70.2441 31.2363C72.5293 30.2793 74.9512 29.8008 77.5098 29.8008C81.084 29.8008 84.3066 30.5625 87.1777 32.0859C90.0684 33.6094 92.3438 35.7773 94.0039 38.5898C95.6641 41.4023 96.4941 44.6055 96.4941 48.1992ZM100.713 48.1992V69H98.6035V48.1992C98.6035 44.2148 97.6758 40.6602 95.8203 37.5352C93.9648 34.3906 91.4355 31.9688 88.2324 30.2695C85.0293 28.5508 81.4551 27.6914 77.5098 27.6914C73.7207 27.6914 70.2539 28.5996 67.1094 30.416C63.9648 32.2324 61.4941 34.6934 59.6973 37.7988C57.9004 40.8848 57.002 44.2539 57.002 47.9062C57.002 50.3086 57.3828 52.5938 58.1445 54.7617C58.9258 56.9102 59.9805 58.7949 61.3086 60.416C62.6562 62.0176 64.1992 63.4043 65.9375 64.5762C67.6953 65.748 69.5801 66.6367 71.5918 67.2422C73.623 67.8477 75.6836 68.1504 77.7734 68.1504C80.0781 68.1504 82.2656 67.7109 84.3359 66.832V69C82.168 69.7617 79.9414 70.1426 77.6562 70.1426C75.293 70.1426 72.9883 69.8105 70.7422 69.1465C68.5156 68.4824 66.4453 67.5059 64.5312 66.2168C62.6367 64.9082 60.9668 63.375 59.5215 61.6172C58.0762 59.8398 56.9434 57.7695 56.123 55.4062C55.3027 53.043 54.8926 50.543 54.8926 47.9062C54.8926 44.8789 55.459 41.998 56.5918 39.2637C57.7441 36.5098 59.3066 34.1367 61.2793 32.1445C63.2715 30.1328 65.6738 28.541 68.4863 27.3691C71.3184 26.1777 74.3262 25.582 77.5098 25.582C80.752 25.582 83.7988 26.1289 86.6504 27.2227C89.502 28.3164 91.9629 29.8398 94.0332 31.793C96.1035 33.7266 97.7344 36.1094 98.9258 38.9414C100.117 41.7734 100.713 44.8594 100.713 48.1992ZM125.322 48.9316H121.982C117.881 48.9316 114.727 48.1016 112.52 46.4414C110.312 44.7617 109.209 42.457 109.209 39.5273C109.209 36.793 110.508 34.5176 113.105 32.7012C115.703 30.8652 119.346 29.9473 124.033 29.9473C127.158 29.9473 130.068 30.377 132.764 31.2363C135.479 32.0957 137.734 33.3066 139.531 34.8691L137.891 36.1875C136.289 34.8789 134.277 33.8633 131.855 33.1406C129.434 32.418 126.826 32.0566 124.033 32.0566C119.912 32.0566 116.758 32.7598 114.57 34.166C112.402 35.5723 111.318 37.3594 111.318 39.5273C111.318 41.8711 112.207 43.6777 113.984 44.9473C115.781 46.1973 118.447 46.8223 121.982 46.8223H125.205C129.365 46.8223 132.549 47.6621 134.756 49.3418C136.982 51.002 138.096 53.2969 138.096 56.2266C138.096 58.9609 136.797 61.2461 134.199 63.082C131.602 64.8984 127.959 65.8066 123.271 65.8066C120.146 65.8066 117.227 65.377 114.512 64.5176C111.816 63.6582 109.57 62.4473 107.773 60.8848L109.414 59.5664C111.016 60.875 113.027 61.8906 115.449 62.6133C117.871 63.3359 120.479 63.6973 123.271 63.6973C127.393 63.6973 130.537 62.9941 132.705 61.5879C134.893 60.1816 135.986 58.3945 135.986 56.2266C135.986 53.8828 135.088 52.0859 133.291 50.8359C131.514 49.5664 128.857 48.9316 125.322 48.9316ZM125.322 53.1504H121.982C116.553 53.1504 112.363 51.9199 109.414 49.459C106.465 46.9785 104.99 43.668 104.99 39.5273C104.99 37.6328 105.41 35.8555 106.25 34.1953C107.09 32.5352 108.291 31.0801 109.854 29.8301C111.436 28.5605 113.447 27.5645 115.889 26.8418C118.33 26.0996 121.045 25.7285 124.033 25.7285C127.803 25.7285 131.328 26.3047 134.609 27.457C137.891 28.5898 140.625 30.1816 142.812 32.2324L141.113 33.4922C139.121 31.6953 136.631 30.3086 133.643 29.332C130.654 28.3359 127.451 27.8379 124.033 27.8379C118.76 27.8379 114.619 28.9512 111.611 31.1777C108.604 33.4043 107.1 36.1875 107.1 39.5273C107.1 43.0625 108.389 45.8652 110.967 47.9355C113.545 50.0059 117.217 51.041 121.982 51.041H125.205C130.986 51.041 133.877 52.7695 133.877 56.2266C133.877 57.7891 132.988 59.0781 131.211 60.0938C129.453 61.0898 126.807 61.5879 123.271 61.5879C120.791 61.5879 118.486 61.3047 116.357 60.7383C114.229 60.1523 112.471 59.3223 111.084 58.248L112.754 56.959C115.195 58.6387 118.701 59.4785 123.271 59.4785C126.201 59.4785 128.35 59.1758 129.717 58.5703C131.084 57.9648 131.768 57.1836 131.768 56.2266C131.768 55.1133 131.289 54.3223 130.332 53.8535C129.375 53.3848 127.705 53.1504 125.322 53.1504ZM125.322 44.7129H121.982C116.279 44.7129 113.428 42.9844 113.428 39.5273C113.428 37.9648 114.307 36.6855 116.064 35.6895C117.842 34.6738 120.498 34.166 124.033 34.166C126.514 34.166 128.818 34.459 130.947 35.0449C133.076 35.6113 134.834 36.4316 136.221 37.5059L134.551 38.7949C132.109 37.1152 128.604 36.2754 124.033 36.2754C121.104 36.2754 118.955 36.5781 117.588 37.1836C116.221 37.7891 115.537 38.5703 115.537 39.5273C115.537 40.6406 116.016 41.4316 116.973 41.9004C117.93 42.3691 119.6 42.6035 121.982 42.6035H125.322C130.752 42.6035 134.941 43.8438 137.891 46.3242C140.84 48.7852 142.314 52.0859 142.314 56.2266C142.314 58.1211 141.895 59.8984 141.055 61.5586C140.215 63.2188 139.004 64.6836 137.422 65.9531C135.859 67.2031 133.857 68.1992 131.416 68.9414C128.975 69.6641 126.26 70.0254 123.271 70.0254C119.502 70.0254 115.977 69.459 112.695 68.3262C109.414 67.1738 106.68 65.5723 104.492 63.5215L106.191 62.2617C108.184 64.0586 110.674 65.4551 113.662 66.4512C116.65 67.4277 119.854 67.916 123.271 67.916C128.545 67.916 132.686 66.8027 135.693 64.5762C138.701 62.3496 140.205 59.5664 140.205 56.2266C140.205 52.6914 138.916 49.8887 136.338 47.8184C133.76 45.748 130.088 44.7129 125.322 44.7129ZM154.414 38.502H156.523V69H154.414V38.502ZM145.977 28.9219V26.8125H177.617V28.9219H145.977ZM145.977 33.1406V31.0312H177.617V33.1406H145.977ZM145.977 37.3594V35.25H177.617V37.3594H145.977ZM167.07 38.502H169.18V69H167.07V38.502ZM162.852 38.502H164.961V69H162.852V38.502ZM158.633 38.502H160.742V69H158.633V38.502ZM198.213 48.8438H210.928C212.607 48.8438 214.033 48.3164 215.205 47.2617C216.377 46.207 216.963 44.7227 216.963 42.8086C216.963 41.4023 216.348 40.1426 215.117 39.0293C213.906 37.916 212.51 37.3594 210.928 37.3594H192.822V69H190.713V35.25H210.928C213.096 35.25 214.99 36.0117 216.611 37.5352C218.252 39.0586 219.072 40.8164 219.072 42.8086C219.072 45.2891 218.281 47.2715 216.699 48.7559C215.117 50.2207 213.193 50.9531 210.928 50.9531H198.213V48.8438ZM198.213 53.0625H210.928C213.74 53.0625 216.152 52.1055 218.164 50.1914C220.176 48.2773 221.182 45.8164 221.182 42.8086C221.182 40.25 220.156 38.0039 218.105 36.0703C216.055 34.1172 213.662 33.1406 210.928 33.1406H188.604V69H186.494V31.0312H210.928C214.248 31.0312 217.139 32.2129 219.6 34.5762C222.061 36.9199 223.291 39.6641 223.291 42.8086C223.291 46.3242 222.07 49.2637 219.629 51.627C217.207 53.9902 214.307 55.1719 210.928 55.1719H198.213V53.0625ZM198.213 57.2812H210.928C213.525 57.2812 215.928 56.6562 218.135 55.4062C220.342 54.1562 222.1 52.418 223.408 50.1914C224.736 47.9648 225.4 45.5039 225.4 42.8086C225.4 40.3672 224.746 38.082 223.438 35.9531C222.129 33.8047 220.352 32.0957 218.105 30.8262C215.879 29.5566 213.486 28.9219 210.928 28.9219H184.385V69H182.275V26.8125H210.928C213.135 26.8125 215.254 27.252 217.285 28.1309C219.336 28.9902 221.104 30.1426 222.588 31.5879C224.072 33.0137 225.264 34.7129 226.162 36.6855C227.061 38.6582 227.51 40.6992 227.51 42.8086C227.51 46.2266 226.729 49.2148 225.166 51.7734C223.604 54.3125 221.504 56.2461 218.867 57.5742L223.291 69H221.035L216.846 58.4238C216.318 58.5996 215.703 58.7754 215 58.9512L218.955 69H216.699L212.832 59.3027C212.227 59.3613 211.592 59.3906 210.928 59.3906L214.648 69H212.422L208.73 59.3906H206.826L210.371 69H208.145L204.57 59.3906H198.213V57.2812ZM197.041 69H194.932V39.4688H210.928C212.021 39.4688 212.949 39.8008 213.711 40.4648C214.473 41.1094 214.854 41.8906 214.854 42.8086C214.854 45.4258 213.545 46.7344 210.928 46.7344H198.213V44.625H210.928C212.139 44.625 212.744 44.0195 212.744 42.8086C212.744 42.4766 212.559 42.1934 212.188 41.959C211.836 41.7051 211.416 41.5781 210.928 41.5781H197.041V69ZM262.139 48.1992C262.139 45.6992 261.367 43.7656 259.824 42.3984C258.281 41.0312 256.24 40.3477 253.701 40.3477C251.553 40.3477 249.707 41.0898 248.164 42.5742C246.621 44.0586 245.85 45.8359 245.85 47.9062C245.85 49.0781 246.006 50.1328 246.318 51.0703C246.631 51.9883 247.051 52.7598 247.578 53.3848C248.125 53.9902 248.77 54.498 249.512 54.9082C250.254 55.2988 251.025 55.582 251.826 55.7578C252.646 55.9336 253.516 56.0215 254.434 56.0215C256.66 56.0215 258.691 55.4746 260.527 54.3809V56.4902C258.633 57.4863 256.592 57.9844 254.404 57.9844C252.998 57.9844 251.67 57.7988 250.42 57.4277C249.189 57.0371 248.066 56.4609 247.051 55.6992C246.035 54.918 245.225 53.8633 244.619 52.5352C244.033 51.1875 243.74 49.6445 243.74 47.9062C243.74 45.2109 244.688 42.9258 246.582 41.0508C248.477 39.1758 250.85 38.2383 253.701 38.2383C256.846 38.2383 259.385 39.127 261.318 40.9043C263.271 42.6621 264.248 45.0938 264.248 48.1992V69H262.139V48.1992ZM268.467 48.1992V69H266.357V48.1992C266.357 44.5078 265.176 41.5781 262.812 39.4102C260.449 37.2227 257.412 36.1289 253.701 36.1289C250.264 36.1289 247.393 37.2715 245.088 39.5566C242.783 41.8418 241.631 44.625 241.631 47.9062C241.631 49.8984 241.973 51.6855 242.656 53.2676C243.359 54.8496 244.307 56.1191 245.498 57.0762C246.689 58.0332 248.018 58.7656 249.482 59.2734C250.967 59.7617 252.529 60.0059 254.17 60.0059C256.396 60.0059 258.516 59.4883 260.527 58.4531V60.6797C258.418 61.5586 256.289 61.998 254.141 61.998C252.207 61.998 250.371 61.7051 248.633 61.1191C246.895 60.5137 245.342 59.6445 243.975 58.5117C242.607 57.3594 241.523 55.875 240.723 54.0586C239.922 52.2227 239.521 50.1719 239.521 47.9062C239.521 44.0586 240.879 40.7871 243.594 38.0918C246.328 35.377 249.697 34.0195 253.701 34.0195C256.514 34.0195 259.033 34.5957 261.26 35.748C263.486 36.8809 265.244 38.5312 266.533 40.6992C267.822 42.8672 268.467 45.3672 268.467 48.1992ZM272.686 48.1992V69H270.576V48.1992C270.576 44.9766 269.834 42.125 268.35 39.6445C266.885 37.1445 264.873 35.2305 262.314 33.9023C259.756 32.5742 256.885 31.9102 253.701 31.9102C250.674 31.9102 247.91 32.6328 245.41 34.0781C242.91 35.5039 240.947 37.4375 239.521 39.8789C238.115 42.3203 237.412 44.9961 237.412 47.9062C237.412 50.4062 237.871 52.6914 238.789 54.7617C239.707 56.8125 240.938 58.502 242.48 59.8301C244.043 61.1582 245.811 62.1934 247.783 62.9355C249.775 63.6582 251.855 64.0195 254.023 64.0195C256.23 64.0195 258.398 63.5605 260.527 62.6426V64.7812C258.301 65.6211 256.113 66.041 253.965 66.041C250.586 66.041 247.48 65.2793 244.648 63.7559C241.816 62.2324 239.551 60.0742 237.852 57.2812C236.152 54.4883 235.303 51.3633 235.303 47.9062C235.303 45.4453 235.771 43.1016 236.709 40.875C237.666 38.6484 238.955 36.7246 240.576 35.1035C242.197 33.4824 244.15 32.1934 246.436 31.2363C248.721 30.2793 251.143 29.8008 253.701 29.8008C257.275 29.8008 260.498 30.5625 263.369 32.0859C266.26 33.6094 268.535 35.7773 270.195 38.5898C271.855 41.4023 272.686 44.6055 272.686 48.1992ZM276.904 48.1992V69H274.795V48.1992C274.795 44.2148 273.867 40.6602 272.012 37.5352C270.156 34.3906 267.627 31.9688 264.424 30.2695C261.221 28.5508 257.646 27.6914 253.701 27.6914C249.912 27.6914 246.445 28.5996 243.301 30.416C240.156 32.2324 237.686 34.6934 235.889 37.7988C234.092 40.8848 233.193 44.2539 233.193 47.9062C233.193 50.3086 233.574 52.5938 234.336 54.7617C235.117 56.9102 236.172 58.7949 237.5 60.416C238.848 62.0176 240.391 63.4043 242.129 64.5762C243.887 65.748 245.771 66.6367 247.783 67.2422C249.814 67.8477 251.875 68.1504 253.965 68.1504C256.27 68.1504 258.457 67.7109 260.527 66.832V69C258.359 69.7617 256.133 70.1426 253.848 70.1426C251.484 70.1426 249.18 69.8105 246.934 69.1465C244.707 68.4824 242.637 67.5059 240.723 66.2168C238.828 64.9082 237.158 63.375 235.713 61.6172C234.268 59.8398 233.135 57.7695 232.314 55.4062C231.494 53.043 231.084 50.543 231.084 47.9062C231.084 44.8789 231.65 41.998 232.783 39.2637C233.936 36.5098 235.498 34.1367 237.471 32.1445C239.463 30.1328 241.865 28.541 244.678 27.3691C247.51 26.1777 250.518 25.582 253.701 25.582C256.943 25.582 259.99 26.1289 262.842 27.2227C265.693 28.3164 268.154 29.8398 270.225 31.793C272.295 33.7266 273.926 36.1094 275.117 38.9414C276.309 41.7734 276.904 44.8594 276.904 48.1992Z" fill="white"/>
<path d="M106.333 123.366C103.501 123.366 101.336 122.202 99.8389 119.875C98.3577 117.548 97.6172 113.999 97.6172 109.23V102.883C97.6172 100.751 97.7718 98.9277 98.0811 97.4141C98.3903 95.8841 98.7972 94.6064 99.3018 93.5811C99.8226 92.5394 100.409 91.7174 101.06 91.1152C101.727 90.513 102.41 90.0573 103.11 89.748C103.81 89.4225 104.502 89.2191 105.186 89.1377C105.869 89.04 106.496 88.9912 107.065 88.9912C108.205 88.9912 109.246 89.1458 110.19 89.4551C111.134 89.748 111.948 90.2038 112.632 90.8223C113.315 91.4245 113.844 92.1895 114.219 93.1172C114.593 94.0449 114.78 95.1354 114.78 96.3887C114.78 97.1699 114.74 97.8454 114.658 98.415C114.593 98.9684 114.495 99.5055 114.365 100.026H109.434V98.9033C109.434 97.2106 109.23 95.8923 108.823 94.9482C108.433 93.988 107.782 93.5078 106.87 93.5078C106.366 93.5078 105.926 93.6299 105.552 93.874C105.177 94.1019 104.86 94.5007 104.6 95.0703C104.355 95.64 104.168 96.4049 104.038 97.3652C103.924 98.3255 103.867 99.5299 103.867 100.979V110.524C103.867 111.989 103.916 113.234 104.014 114.26C104.111 115.285 104.282 116.123 104.526 116.774C104.771 117.409 105.096 117.873 105.503 118.166C105.91 118.459 106.414 118.605 107.017 118.605C107.326 118.605 107.627 118.532 107.92 118.386C108.213 118.223 108.465 117.963 108.677 117.604C108.905 117.246 109.084 116.774 109.214 116.188C109.36 115.586 109.434 114.846 109.434 113.967V112.917H114.756V114.211C114.756 117.401 114.048 119.729 112.632 121.193C111.232 122.642 109.132 123.366 106.333 123.366ZM124.424 123.366C123.382 123.366 122.454 123.163 121.641 122.756C120.843 122.333 120.168 121.763 119.614 121.047C119.061 120.331 118.638 119.484 118.345 118.508C118.068 117.515 117.93 116.441 117.93 115.285C117.93 113.902 118.101 112.673 118.442 111.599C118.784 110.524 119.281 109.556 119.932 108.693C120.599 107.831 121.421 107.049 122.397 106.35C123.374 105.633 124.505 104.958 125.791 104.323C126.41 104.014 127.101 103.705 127.866 103.396C128.647 103.07 129.339 102.793 129.941 102.565V98.1221C129.941 97.471 129.917 96.8688 129.868 96.3154C129.819 95.7458 129.697 95.2575 129.502 94.8506C129.323 94.4274 129.046 94.1019 128.672 93.874C128.298 93.6299 127.785 93.5078 127.134 93.5078C126.694 93.5078 126.263 93.5892 125.84 93.752C125.433 93.9147 125.067 94.1914 124.741 94.582C124.432 94.9727 124.18 95.4935 123.984 96.1445C123.805 96.7956 123.716 97.6012 123.716 98.5615V100.026H119.004C118.857 99.3916 118.743 98.8138 118.662 98.293C118.597 97.7559 118.564 97.2269 118.564 96.7061C118.564 95.4528 118.776 94.346 119.199 93.3857C119.639 92.4255 120.241 91.6198 121.006 90.9688C121.787 90.3177 122.715 89.8294 123.789 89.5039C124.863 89.1621 126.043 88.9912 127.329 88.9912C129.006 88.9912 130.397 89.1784 131.504 89.5527C132.611 89.9108 133.49 90.4561 134.141 91.1885C134.808 91.9209 135.272 92.8405 135.532 93.9473C135.809 95.054 135.947 96.348 135.947 97.8291V123H131.357L130.918 120.119C130.251 121.079 129.355 121.861 128.232 122.463C127.126 123.065 125.856 123.366 124.424 123.366ZM127.158 118.605C127.679 118.605 128.184 118.475 128.672 118.215C129.176 117.938 129.6 117.604 129.941 117.214V106.691C129.616 106.822 129.25 106.976 128.843 107.155C128.436 107.334 127.996 107.57 127.524 107.863C127.085 108.14 126.654 108.474 126.23 108.864C125.807 109.255 125.425 109.719 125.083 110.256C124.757 110.793 124.489 111.403 124.277 112.087C124.082 112.754 123.984 113.503 123.984 114.333C123.984 115.619 124.237 116.652 124.741 117.434C125.246 118.215 126.051 118.605 127.158 118.605ZM142.441 78.5908H148.618V104.152H148.813L155.552 89.3818H161.484L154.014 104.763L162.192 123H155.894L148.813 106.325H148.618V123H142.441V78.5908ZM173.447 123.366C171.999 123.366 170.713 123.098 169.59 122.561C168.483 122.023 167.547 121.185 166.782 120.046C166.017 118.907 165.439 117.45 165.049 115.676C164.658 113.885 164.463 111.737 164.463 109.23V102.883C164.463 100.751 164.618 98.9277 164.927 97.4141C165.252 95.8841 165.667 94.6064 166.172 93.5811C166.693 92.5394 167.287 91.7174 167.954 91.1152C168.638 90.513 169.338 90.0573 170.054 89.748C170.77 89.4225 171.478 89.2191 172.178 89.1377C172.894 89.04 173.553 88.9912 174.155 88.9912C175.262 88.9912 176.328 89.1621 177.354 89.5039C178.379 89.8294 179.282 90.3991 180.063 91.2129C180.845 92.0104 181.463 93.0846 181.919 94.4355C182.391 95.7865 182.627 97.471 182.627 99.4893C182.627 100.173 182.603 100.865 182.554 101.564C182.521 102.264 182.472 102.956 182.407 103.64C182.342 104.307 182.253 104.958 182.139 105.593C182.041 106.228 181.935 106.813 181.821 107.351H170.664V110.769C170.664 112.233 170.721 113.47 170.835 114.479C170.949 115.472 171.136 116.278 171.396 116.896C171.673 117.499 172.039 117.938 172.495 118.215C172.967 118.475 173.553 118.605 174.253 118.605C174.627 118.605 174.993 118.532 175.352 118.386C175.71 118.223 176.019 117.963 176.279 117.604C176.556 117.246 176.776 116.774 176.938 116.188C177.101 115.586 177.183 114.846 177.183 113.967V112.917H182.334V114.211C182.334 117.401 181.569 119.729 180.039 121.193C178.525 122.642 176.328 123.366 173.447 123.366ZM176.865 103.2C176.882 103.021 176.898 102.785 176.914 102.492C176.93 102.183 176.938 101.866 176.938 101.54C176.955 101.215 176.963 100.897 176.963 100.588C176.963 100.262 176.963 99.9857 176.963 99.7578C176.963 97.5443 176.702 95.9492 176.182 94.9727C175.661 93.9961 174.888 93.5078 173.862 93.5078C173.325 93.5078 172.853 93.638 172.446 93.8984C172.039 94.1426 171.706 94.5658 171.445 95.168C171.185 95.7539 170.99 96.5352 170.859 97.5117C170.729 98.4883 170.664 99.7008 170.664 101.149V103.2H176.865Z" fill="white"/>
</svg>
