<svg width="38" height="38" viewBox="0 0 38 38" fill="none" xmlns="http://www.w3.org/2000/svg">
<g clip-path="url(#clip0)">
<path d="M15.9337 29.8975C14.0909 29.8975 12.5917 31.3967 12.5917 33.2395C12.5917 35.0822 14.0909 36.5815 15.9337 36.5815C17.7765 36.5815 19.2757 35.0822 19.2757 33.2395C19.2756 31.3967 17.7764 29.8975 15.9337 29.8975ZM15.9337 34.7153C15.1198 34.7153 14.4577 34.0531 14.4577 33.2393C14.4577 32.4254 15.1199 31.7633 15.9337 31.7633C16.7475 31.7633 17.4097 32.4255 17.4097 33.2393C17.4097 34.0533 16.7475 34.7153 15.9337 34.7153Z" fill="white"/>
<path d="M27.6562 29.8975C25.8134 29.8975 24.3142 31.3967 24.3142 33.2395C24.3142 35.0822 25.8134 36.5815 27.6562 36.5815C29.499 36.5815 30.9982 35.0822 30.9982 33.2395C30.9981 31.3967 29.4989 29.8975 27.6562 29.8975ZM27.6562 34.7153C26.8423 34.7153 26.1802 34.0531 26.1802 33.2393C26.1802 32.4254 26.8424 31.7633 27.6562 31.7633C28.4701 31.7633 29.1322 32.4255 29.1322 33.2393C29.1322 34.0533 28.47 34.7153 27.6562 34.7153Z" fill="white"/>
<path d="M37.58 8.14492C37.2242 7.70821 36.697 7.4578 36.1336 7.4578H7.07139L6.48447 4.60861C6.36194 4.01426 5.95655 3.51522 5.39984 3.27349L1.30466 1.49594C0.831885 1.29058 0.282442 1.50752 0.077375 1.98015C-0.127914 2.45292 0.0890274 3.00244 0.561579 3.2075L4.65683 4.98512L9.17127 26.8991C9.3491 27.7621 10.1177 28.3885 10.9989 28.3885H22.175H33.3511C33.8664 28.3885 34.2841 27.9708 34.2841 27.4555C34.2841 26.9402 33.8664 26.5225 33.3511 26.5225H10.999L10.4498 23.8568H33.5239C34.405 23.8568 35.1737 23.2304 35.3515 22.3674L37.9612 9.7001C38.0749 9.1485 37.9359 8.58155 37.58 8.14492ZM33.5239 21.991H10.0655L7.45585 9.32374L36.1335 9.32381L33.5239 21.991Z" fill="white"/>
</g>
<defs>
<clipPath id="clip0">
<rect width="38" height="38" fill="white"/>
</clipPath>
</defs>
</svg>
