<svg width="15" height="28" viewBox="0 0 15 28" fill="none" xmlns="http://www.w3.org/2000/svg">
<g clip-path="url(#clip0)">
<path d="M7.79902 3.66029L14.875 10.7363C15.0416 10.9029 15.0416 11.1701 14.875 11.3367C14.7084 11.5033 14.4412 11.5033 14.2746 11.3367L7.50039 4.56247L0.726147 11.3367C0.559541 11.5033 0.292344 11.5033 0.125739 11.3367C0.0440086 11.255 -5.9227e-07 11.145 -5.90995e-07 11.0381C-5.89721e-07 10.9312 0.0408644 10.8212 0.125739 10.7395L7.20176 3.66343C7.36522 3.49683 7.63556 3.49683 7.79902 3.66029Z" fill="#949494"/>
</g>
<g clip-path="url(#clip1)">
<path d="M7.20098 24.3397L0.124958 17.2637C-0.0416476 17.0971 -0.0416476 16.8299 0.124958 16.6633C0.291564 16.4967 0.558761 16.4967 0.725367 16.6633L7.49961 23.4375L14.2739 16.6633C14.4405 16.4967 14.7077 16.4967 14.8743 16.6633C14.956 16.745 15 16.855 15 16.9619C15 17.0688 14.9591 17.1788 14.8743 17.2606L7.79824 24.3366C7.63478 24.5032 7.36444 24.5032 7.20098 24.3397Z" fill="#949494"/>
</g>
<defs>
<clipPath id="clip0">
<rect width="15" height="15" fill="white" transform="matrix(1.19249e-08 -1 -1 -1.19249e-08 15 15)"/>
</clipPath>
<clipPath id="clip1">
<rect width="15" height="15" fill="white" transform="matrix(-4.37114e-08 1 1 4.37114e-08 9.53674e-07 13)"/>
</clipPath>
</defs>
</svg>
