<?xml version="1.0" encoding="utf-8"?>
<!-- Generator: Adobe Illustrator 22.0.1, SVG Export Plug-In . SVG Version: 6.00 Build 0)  -->
<svg version="1.1" id="Layer_1" xmlns="http://www.w3.org/2000/svg" xmlns:xlink="http://www.w3.org/1999/xlink" x="0px" y="0px"
	 viewBox="0 0 25 25" style="enable-background:new 0 0 25 25;" xml:space="preserve">
<style type="text/css">
	.st0{clip-path:url(#SVGID_2_);}
</style>
<g>
	<g>
		<defs>
			<rect id="SVGID_1_" width="25" height="25"/>
		</defs>
		<clipPath id="SVGID_2_">
			<use xlink:href="#SVGID_1_"  style="overflow:visible;"/>
		</clipPath>
		<g class="st0">
			<path d="M14.7,12.5l9.8-9.8c0.6-0.6,0.6-1.6,0-2.2s-1.6-0.6-2.2,0l-9.8,9.8L2.7,0.5c-0.6-0.6-1.6-0.6-2.2,0s-0.6,1.6,0,2.2
				l9.8,9.8l-9.8,9.8c-0.6,0.6-0.6,1.6,0,2.2C0.8,24.8,1.2,25,1.6,25s0.8-0.2,1.1-0.5l9.8-9.8l9.8,9.8c0.3,0.3,0.7,0.5,1.1,0.5
				s0.8-0.2,1.1-0.5c0.6-0.6,0.6-1.6,0-2.2L14.7,12.5z"/>
		</g>
	</g>
</g>
</svg>
